<?xml version="1.0" encoding="iso-8859-1"?>
<!-- Generator: Adobe Illustrator 19.0.0, SVG Export Plug-In . SVG Version: 6.00 Build 0)  -->
<svg version="1.1" id="Layer_1" xmlns="http://www.w3.org/2000/svg" xmlns:xlink="http://www.w3.org/1999/xlink" x="0px" y="0px"
	 viewBox="0 0 512 512" style="enable-background:new 0 0 512 512;" xml:space="preserve">
<g transform="translate(1 1)">
	<g>
		<path style="fill:#E2E3E5;" d="M259.741,65.37c-5.689,0-9.481-3.793-9.481-9.481V17.963c0-5.689,3.793-9.481,9.481-9.481
			c5.689,0,9.481,3.793,9.481,9.481v37.926C269.222,61.578,265.43,65.37,259.741,65.37z"/>
		<path style="fill:#E2E3E5;" d="M487.296,255H449.37c-5.689,0-9.481-3.793-9.481-9.481c0-5.689,3.793-9.481,9.481-9.481h37.926
			c5.689,0,9.481,3.793,9.481,9.481C496.778,251.207,492.985,255,487.296,255z"/>
		<path style="fill:#E2E3E5;" d="M70.111,255H32.185c-5.689,0-9.481-3.793-9.481-9.481c0-5.689,3.793-9.481,9.481-9.481h37.926
			c5.689,0,9.481,3.793,9.481,9.481C79.593,251.207,75.8,255,70.111,255z"/>
		<path style="fill:#E2E3E5;" d="M393.43,121.311c-2.844,0-4.741-0.948-6.637-2.844c-3.793-3.793-3.793-9.481,0-13.274
			l26.548-26.548c3.793-3.793,9.481-3.793,13.274,0s3.793,9.481,0,13.274l-26.548,26.548
			C399.119,120.363,396.274,121.311,393.43,121.311z"/>
		<path style="fill:#E2E3E5;" d="M98.556,416.185c-2.844,0-4.741-0.948-6.637-2.844c-3.793-3.793-3.793-9.481,0-13.274
			l26.548-26.548c3.793-3.793,9.481-3.793,13.274,0s3.793,9.481,0,13.274l-26.548,26.548
			C103.296,415.237,101.4,416.185,98.556,416.185z"/>
		<path style="fill:#E2E3E5;" d="M420.926,416.185c-2.844,0-4.741-0.948-6.637-2.844l-26.548-26.548
			c-3.793-3.793-3.793-9.481,0-13.274s9.481-3.793,13.274,0l26.548,26.548c3.793,3.793,3.793,9.482,0,13.274
			C425.667,415.237,422.822,416.185,420.926,416.185z"/>
		<path style="fill:#E2E3E5;" d="M126.052,121.311c-2.844,0-4.741-0.948-6.637-2.844L91.919,90.97
			c-3.793-3.793-3.793-9.481,0-13.274c3.793-3.793,9.481-3.793,13.274,0l26.548,26.548c3.793,3.793,3.793,9.481,0,13.274
			C130.793,120.363,127.948,121.311,126.052,121.311z"/>
	</g>
	<g>
		<path style="fill:#B6B6B6;" d="M250.259,55.889c-5.689,0-9.481-3.793-9.481-9.481V8.481c0-5.689,3.793-9.481,9.481-9.481
			s9.481,3.793,9.481,9.481v37.926C259.741,52.096,255.948,55.889,250.259,55.889z"/>
		<path style="fill:#B6B6B6;" d="M477.815,245.519h-37.926c-5.689,0-9.481-3.793-9.481-9.481c0-5.689,3.793-9.481,9.481-9.481
			h37.926c5.689,0,9.481,3.793,9.481,9.481C487.296,241.726,483.504,245.519,477.815,245.519z"/>
		<path style="fill:#B6B6B6;" d="M60.63,245.519H22.704c-5.689,0-9.481-3.793-9.481-9.481c0-5.689,3.793-9.481,9.481-9.481H60.63
			c5.689,0,9.481,3.793,9.481,9.481C70.111,241.726,66.319,245.519,60.63,245.519z"/>
		<path style="fill:#B6B6B6;" d="M383.948,111.83c-2.844,0-4.741-0.948-6.637-2.844c-3.793-3.793-3.793-9.481,0-13.274
			l26.548-26.548c3.793-3.793,9.482-3.793,13.274,0c3.793,3.793,3.793,9.481,0,13.274l-26.548,26.548
			C389.637,110.881,386.793,111.83,383.948,111.83z"/>
		<path style="fill:#B6B6B6;" d="M89.074,406.704c-2.844,0-4.741-0.948-6.637-2.844c-3.793-3.793-3.793-9.482,0-13.274
			l26.548-26.548c3.793-3.793,9.481-3.793,13.274,0s3.793,9.481,0,13.274l-26.548,26.548
			C93.815,405.756,91.919,406.704,89.074,406.704z"/>
		<path style="fill:#B6B6B6;" d="M411.444,406.704c-2.844,0-4.741-0.948-6.637-2.844l-26.548-26.548
			c-3.793-3.793-3.793-9.481,0-13.274c3.793-3.793,9.481-3.793,13.274,0l26.548,26.548c3.793,3.793,3.793,9.481,0,13.274
			C416.185,405.756,413.341,406.704,411.444,406.704z"/>
		<path style="fill:#B6B6B6;" d="M116.57,111.83c-2.844,0-4.741-0.948-6.637-2.844L82.437,81.489c-3.793-3.793-3.793-9.481,0-13.274
			c3.793-3.793,9.481-3.793,13.274,0l26.548,26.548c3.793,3.793,3.793,9.481,0,13.274C121.311,110.881,118.467,111.83,116.57,111.83
			z"/>
	</g>
	<path style="fill:#CCCCCC;" d="M250.259,84.333c-83.437,0-151.704,68.267-151.704,151.704c0,67.319,43.615,124.207,104.296,144.119
		v92.918h18.963v28.444h56.889v-28.444h18.963v-92.918c60.682-19.911,104.296-76.8,104.296-144.119
		C401.963,152.6,333.696,84.333,250.259,84.333"/>
	<path style="fill:#E2E3E5;" d="M221.815,84.333c-0.948,0-0.948,0-1.896,0c0,0.948-0.948,1.896-1.896,2.844
		c-5.689,7.585-14.222,9.481-23.704,11.378c-7.585,0.948-17.067,1.896-22.756,6.637c0.948,2.844,0,5.689-2.844,8.533
		c-16.119,12.326-34.133,24.652-43.615,42.667c-1.896,2.844-4.741,4.741-7.585,4.741c1.896,2.844,2.844,6.637,0.948,10.43
		c-5.689,12.326-10.43,23.704-19.911,31.289c1.896,11.378,2.844,22.756,3.793,35.081c0,1.896,0,4.741,0,8.533
		c8.533,21.807,16.119,44.563,18.015,67.319c10.43,12.326,20.859,24.652,32.237,36.03c7.585,4.741,14.222,11.378,20.859,18.015
		c10.43,4.741,19.911,10.43,24.652,21.807c4.741,10.43,3.793,22.756,1.896,36.03c3.793,1.896,7.585,5.689,6.637,11.378
		c-1.896,9.481-3.793,18.963-4.741,28.444c0,1.896-0.948,5.689-0.948,10.43h0.948c15.17,0,24.652,14.222,29.393,26.548h18.963
		v-28.444h18.963v-92.919c60.681-19.911,104.296-76.8,104.296-144.119C373.519,152.6,305.252,84.333,221.815,84.333"/>
	<path style="fill:#FFFFFF;" d="M250.259,84.333c4.741,0,9.481,0,14.222,0.948C187.681,91.919,127,157.341,127,236.037
		c0,67.319,43.615,124.207,104.296,144.119v92.918h18.963v28.444h-28.444v-28.444h-18.963v-92.918
		c-60.681-19.911-104.296-76.8-104.296-144.119C98.556,152.6,166.822,84.333,250.259,84.333"/>
	<g>
		<path style="fill:#B6B6B6;" d="M278.704,511h-56.889c-5.689,0-9.481-3.793-9.481-9.481v-18.963h-9.481
			c-5.689,0-9.481-3.793-9.481-9.482v-86.281c-62.578-23.704-104.296-83.437-104.296-150.756
			c0-89.126,72.059-161.185,161.185-161.185s161.185,72.059,161.185,161.185c0,67.319-41.719,127.052-104.296,150.756v86.281
			c0,5.689-3.793,9.482-9.482,9.482h-9.481v18.963C288.185,507.207,284.393,511,278.704,511z M231.296,492.037h37.926v-18.963
			c0-5.689,3.793-9.481,9.481-9.481h9.481v-83.437c0-3.793,2.844-7.585,6.637-9.482c58.785-18.963,97.659-73.007,97.659-134.637
			c0-78.696-63.526-142.222-142.222-142.222s-142.222,63.526-142.222,142.222c0,61.63,38.874,115.674,97.659,134.637
			c3.793,0.948,6.637,4.741,6.637,9.482v83.437h9.481c5.689,0,9.481,3.793,9.481,9.481V492.037z"/>
		<path style="fill:#B6B6B6;" d="M297.667,416.185h-94.815c-5.689,0-9.481-3.793-9.481-9.481s3.793-9.481,9.481-9.481h94.815
			c5.689,0,9.482,3.793,9.482,9.481S303.356,416.185,297.667,416.185z"/>
		<path style="fill:#B6B6B6;" d="M145.963,245.519c-5.689,0-9.481-3.793-9.481-9.481c0-62.578,51.2-113.778,113.778-113.778
			c5.689,0,9.481,3.793,9.481,9.481c0,5.689-3.793,9.481-9.481,9.481c-52.148,0-94.815,42.667-94.815,94.815
			C155.444,241.726,151.652,245.519,145.963,245.519z"/>
	</g>
</g>
<g>
</g>
<g>
</g>
<g>
</g>
<g>
</g>
<g>
</g>
<g>
</g>
<g>
</g>
<g>
</g>
<g>
</g>
<g>
</g>
<g>
</g>
<g>
</g>
<g>
</g>
<g>
</g>
<g>
</g>
</svg>
